
<svg width="249" height="249" viewBox="0 0 249 249" fill="none" xmlns="http://www.w3.org/2000/svg">
<circle cx="110" cy="110" r="107.5" stroke="white" stroke-width="5"/>
<path d="M110 178C72.4446 178 42 147.555 42 110C42 72.4446 72.4446 42 110 42C147.555 42 178 72.4446 178 110C178 147.555 147.555 178 110 178Z" stroke="white" stroke-width="4"/>
<path d="M30.5092 112.144L32.5869 112.047L32.7795 116.203L18.2151 116.878L18.1087 114.58L30.5953 114.002L30.5092 112.144Z" fill="white"/>
<path d="M26.0387 121.77C28.3045 121.337 30.1451 121.38 31.5604 121.897C32.9913 122.425 33.8854 123.626 34.2426 125.499C34.5999 127.372 34.2092 128.81 33.0705 129.815C31.9475 130.83 30.253 131.553 27.9872 131.986C25.6952 132.423 23.8272 132.379 22.3832 131.853C20.9548 131.338 20.0619 130.144 19.7047 128.272C19.3475 126.399 19.7369 124.953 20.8731 123.936C22.0248 122.929 23.7467 122.207 26.0387 121.77ZM27.5675 129.785C28.6284 129.583 29.5118 129.34 30.2178 129.056C30.9263 128.785 31.4697 128.396 31.8482 127.89C32.2397 127.381 32.3568 126.713 32.1995 125.888C32.0421 125.063 31.6877 124.486 31.1362 124.157C30.5979 123.825 29.9482 123.657 29.1873 123.653C28.4289 123.662 27.5192 123.768 26.4584 123.97C25.3582 124.18 24.4473 124.421 23.7258 124.695C23.0042 124.968 22.4542 125.358 22.0757 125.865C21.6998 126.384 21.5905 127.057 21.7479 127.882C21.9053 128.707 22.2531 129.285 22.7915 129.617C23.3323 129.962 23.9885 130.128 24.76 130.117C25.5315 130.106 26.4674 129.995 27.5675 129.785Z" fill="white"/>
<path d="M29.5258 137.304C31.6699 136.453 33.4856 136.149 34.973 136.391C36.4777 136.64 37.5816 137.651 38.2847 139.423C38.9879 141.195 38.8748 142.682 37.9454 143.883C37.0334 145.091 35.5053 146.12 33.3613 146.971C31.1924 147.831 29.3494 148.139 27.8324 147.895C26.3326 147.658 25.2311 146.653 24.528 144.881C23.8248 143.109 23.9354 141.616 24.8599 140.403C25.8017 139.198 27.357 138.164 29.5258 137.304ZM32.5352 144.889C33.539 144.49 34.3609 144.085 35.0009 143.674C35.6458 143.274 36.1064 142.79 36.3828 142.222C36.6716 141.648 36.6611 140.971 36.3514 140.19C36.0416 139.409 35.5849 138.909 34.9814 138.69C34.3903 138.465 33.7207 138.422 32.9725 138.561C32.2293 138.713 31.3558 138.988 30.3519 139.386C29.3109 139.799 28.4617 140.208 27.8044 140.612C27.1472 141.016 26.6804 141.503 26.4039 142.071C26.1324 142.652 26.1516 143.333 26.4614 144.114C26.7711 144.895 27.2216 145.398 27.8127 145.622C28.4088 145.859 29.0846 145.899 29.8402 145.743C30.5958 145.586 31.4941 145.302 32.5352 144.889Z" fill="white"/>
<path d="M38.5673 149.688C39.3787 149.15 40.167 148.964 40.932 149.129C41.7154 149.298 42.3538 149.755 42.8471 150.499C43.3404 151.244 43.5082 152.005 43.3506 152.781C43.2114 153.561 42.7361 154.219 41.9246 154.757C41.1131 155.294 40.3156 155.479 39.5322 155.31C38.7561 155.152 38.1214 154.701 37.6281 153.956C37.1348 153.211 36.9633 152.445 37.1136 151.658C37.2712 150.882 37.7558 150.225 38.5673 149.688ZM47.6885 158.28L31.6766 159.313L30.4397 157.446L46.4515 156.412L47.6885 158.28ZM41.6966 151.261C41.2327 150.561 40.5173 150.531 39.5502 151.172C38.5719 151.82 38.3147 152.494 38.7786 153.194C38.9995 153.528 39.2855 153.706 39.6368 153.729C40.0065 153.756 40.4415 153.604 40.9417 153.273C41.9088 152.632 42.1604 151.962 41.6966 151.261ZM36.2423 160.991C37.0538 160.454 37.8421 160.267 38.6071 160.433C39.3905 160.601 40.0289 161.058 40.5222 161.803C41.0081 162.537 41.1723 163.291 41.0146 164.068C40.8755 164.847 40.4001 165.506 39.5886 166.044C38.7772 166.581 37.9797 166.765 37.1962 166.597C36.4201 166.439 35.7891 165.993 35.3031 165.26C34.8099 164.515 34.6384 163.749 34.7886 162.962C34.9463 162.185 35.4309 161.529 36.2423 160.991ZM39.3606 162.548C38.8968 161.848 38.1813 161.818 37.2142 162.459C36.2471 163.099 35.9955 163.77 36.4593 164.47C36.9232 165.17 37.6386 165.2 38.6057 164.559C39.5728 163.919 39.8245 163.249 39.3606 162.548Z" fill="white"/>
<path d="M53.4411 186.837L53.2298 183.248C52.656 183.002 52.0909 182.65 51.5343 182.193C50.5345 181.373 49.8024 180.384 49.3379 179.226C48.8922 178.067 48.7645 176.867 48.9549 175.626C49.1641 174.384 49.7001 173.237 50.5629 172.185C51.4257 171.134 52.4419 170.39 53.6114 169.952C54.7913 169.524 55.989 169.42 57.2045 169.641C58.4387 169.861 59.5557 170.381 60.5555 171.201C61.5655 172.03 62.2934 173.024 62.7392 174.183C63.2037 175.341 63.3356 176.536 63.1348 177.768C62.9341 179.001 62.4023 180.142 61.5396 181.194C60.7275 182.183 59.7752 182.902 58.6825 183.351C57.6086 183.798 56.4967 183.955 55.3468 183.822L55.6828 188.677L53.4411 186.837ZM52.3717 173.67C51.7204 174.463 51.2998 175.291 51.11 176.153C50.9389 177.013 50.9963 177.836 51.2821 178.623C51.5765 179.399 52.0792 180.079 52.7904 180.663C53.5016 181.246 54.2666 181.607 55.0853 181.744C55.9126 181.871 56.7261 181.763 57.5259 181.419C58.3445 181.073 59.0794 180.503 59.7307 179.709C60.3821 178.916 60.7933 178.089 60.9644 177.229C61.1458 176.377 61.0893 175.563 60.7949 174.787C60.5006 174.011 59.9978 173.331 59.2867 172.747C58.5755 172.164 57.8105 171.803 56.9918 171.666C56.173 171.529 55.3585 171.628 54.5484 171.963C53.7486 172.307 53.023 172.876 52.3717 173.67Z" fill="white"/>
<path d="M71.4526 179.006L67.4044 186.888C66.9231 187.824 66.8038 188.655 67.0464 189.379C67.3008 190.11 67.8669 190.7 68.7445 191.151C69.634 191.608 70.4438 191.724 71.1737 191.499C71.9155 191.281 72.5271 190.703 73.0084 189.766L77.0566 181.885L79.0847 182.927L75.0547 190.772C74.5369 191.78 73.8788 192.522 73.0806 192.996C72.2823 193.47 71.4272 193.691 70.5152 193.657C69.6032 193.623 68.7024 193.378 67.8129 192.921C66.9234 192.464 66.1993 191.875 65.6407 191.153C65.0939 190.437 64.7867 189.62 64.7192 188.701C64.6516 187.782 64.8768 186.818 65.3946 185.81L69.4245 177.965L71.4526 179.006Z" fill="white"/>
<path d="M88.7138 197.645L83.1081 196.08L81.3814 198.546L79.089 197.906L87.6283 185.838L90.1711 186.548L91.225 201.294L88.9134 200.649L88.7138 197.645ZM88.5975 195.681L88.1576 188.851L84.2247 194.46L88.5975 195.681Z" fill="white"/>
<path d="M99.4159 200.554L104.089 201.06L103.89 202.889L96.9509 202.137L98.4484 188.318L100.715 188.564L99.4159 200.554Z" fill="white"/>
<path d="M111.465 189.106L111.519 203.006L109.239 203.015L109.185 189.115L111.465 189.106Z" fill="white"/>
<path d="M125.082 187.813L125.325 189.657L121.657 190.14L123.23 202.077L120.969 202.375L119.396 190.438L115.708 190.924L115.465 189.08L125.082 187.813Z" fill="white"/>
<path d="M140.613 194.836L135.084 196.653L135.021 199.664L132.76 200.407L133.144 185.628L135.652 184.803L144.73 196.472L142.45 197.222L140.613 194.836ZM139.424 193.269L135.26 187.838L135.111 194.687L139.424 193.269ZM132.333 184.442C132.016 184.546 131.709 184.528 131.41 184.387C131.119 184.23 130.922 183.993 130.818 183.677C130.714 183.36 130.734 183.058 130.879 182.772C131.032 182.469 131.267 182.266 131.583 182.162C131.9 182.058 132.204 182.084 132.494 182.241C132.793 182.382 132.994 182.61 133.098 182.927C133.202 183.244 133.178 183.554 133.025 183.856C132.88 184.143 132.65 184.338 132.333 184.442ZM135.601 183.368C135.284 183.472 134.976 183.453 134.678 183.313C134.387 183.156 134.19 182.919 134.086 182.602C133.982 182.286 134.002 181.984 134.147 181.698C134.3 181.395 134.535 181.192 134.851 181.088C135.168 180.983 135.472 181.01 135.762 181.167C136.061 181.308 136.262 181.536 136.366 181.853C136.47 182.169 136.446 182.479 136.293 182.782C136.148 183.068 135.918 183.263 135.601 183.368Z" fill="white"/>
<path d="M151.895 177.134L152.793 178.763L149.553 180.55L155.369 191.093L153.372 192.194L147.557 181.651L144.3 183.448L143.401 181.82L151.895 177.134Z" fill="white"/>
<path d="M167.833 182.779C167.107 183.366 166.353 183.77 165.571 183.991C164.781 184.201 164.032 184.207 163.323 184.009C162.613 183.81 162.007 183.4 161.504 182.778L163.402 181.244C163.821 181.677 164.312 181.914 164.877 181.955C165.452 181.987 166.035 181.764 166.626 181.286C167.237 180.792 167.597 180.261 167.704 179.694C167.803 179.117 167.664 178.595 167.287 178.128C166.993 177.765 166.646 177.558 166.243 177.506C165.852 177.445 165.445 177.483 165.023 177.618C164.611 177.746 164.067 177.963 163.389 178.27C162.534 178.654 161.807 178.932 161.21 179.106C160.616 179.261 159.999 179.263 159.361 179.11C158.723 178.957 158.132 178.543 157.587 177.87C157.084 177.247 156.799 176.577 156.733 175.859C156.667 175.141 156.813 174.431 157.172 173.73C157.531 173.028 158.078 172.38 158.814 171.785C159.861 170.938 160.93 170.511 162.022 170.503C163.115 170.477 164.066 170.89 164.877 171.744L162.917 173.328C162.567 172.959 162.108 172.773 161.54 172.77C160.971 172.767 160.407 172.992 159.847 173.444C159.339 173.855 159.029 174.32 158.917 174.839C158.806 175.358 158.947 175.861 159.341 176.349C159.609 176.68 159.93 176.876 160.303 176.934C160.678 176.974 161.071 176.93 161.483 176.803C161.894 176.676 162.428 176.467 163.085 176.176C163.96 175.795 164.7 175.522 165.305 175.359C165.92 175.187 166.551 175.182 167.197 175.346C167.846 175.49 168.447 175.905 169 176.589C169.444 177.138 169.713 177.778 169.806 178.509C169.91 179.231 169.798 179.973 169.471 180.734C169.146 181.477 168.6 182.159 167.833 182.779Z" fill="white"/>
<path d="M174.024 156.267L181.317 169.2L179.62 171.223L165.604 166.302L167.172 164.433L178.676 168.707L172.482 158.105L174.024 156.267Z" fill="white"/>
<path d="M178.756 151.914L182.299 153.937L184.679 149.769L186.294 150.691L183.914 154.859L187.613 156.972L190.291 152.283L191.906 153.205L188.098 159.874L176.01 152.972L179.818 146.302L181.434 147.225L178.756 151.914Z" fill="white"/>
<path d="M197.356 140.158L191.038 141.272L190.445 142.908L195.673 144.803L194.896 146.946L181.828 142.21L183.463 137.697C183.827 136.694 184.309 135.912 184.91 135.349C185.515 134.775 186.174 134.425 186.886 134.3C187.602 134.162 188.324 134.225 189.051 134.489C189.903 134.798 190.589 135.33 191.11 136.086C191.622 136.825 191.817 137.754 191.695 138.872L198.283 137.601L197.356 140.158ZM188.734 142.288L189.593 139.919C189.884 139.116 189.901 138.442 189.646 137.896C189.394 137.336 188.93 136.934 188.253 136.689C187.576 136.444 186.977 136.453 186.456 136.718C185.922 136.979 185.507 137.516 185.212 138.331L184.353 140.7L188.734 142.288Z" fill="white"/>
<path d="M200.98 125.923C200.829 126.845 200.536 127.648 200.1 128.333C199.651 129.017 199.096 129.52 198.435 129.845C197.774 130.169 197.049 130.267 196.259 130.139L196.652 127.73C197.253 127.774 197.778 127.623 198.226 127.278C198.676 126.919 198.962 126.364 199.085 125.614C199.211 124.838 199.126 124.203 198.828 123.708C198.517 123.212 198.066 122.915 197.474 122.819C197.013 122.743 196.616 122.82 196.281 123.05C195.949 123.266 195.67 123.565 195.446 123.947C195.223 124.316 194.962 124.841 194.662 125.521C194.279 126.377 193.923 127.069 193.594 127.596C193.254 128.108 192.795 128.52 192.217 128.831C191.64 129.142 190.923 129.228 190.068 129.088C189.278 128.959 188.62 128.649 188.092 128.158C187.564 127.667 187.2 127.04 187 126.278C186.8 125.516 186.777 124.667 186.929 123.733C187.146 122.404 187.658 121.373 188.467 120.64C189.264 119.892 190.25 119.567 191.423 119.663L191.017 122.15C190.511 122.108 190.044 122.275 189.618 122.652C189.192 123.028 188.921 123.572 188.805 124.282C188.7 124.927 188.779 125.48 189.041 125.942C189.303 126.403 189.744 126.685 190.362 126.786C190.783 126.854 191.153 126.786 191.47 126.581C191.776 126.361 192.04 126.066 192.262 125.697C192.485 125.328 192.744 124.817 193.04 124.162C193.438 123.295 193.808 122.599 194.15 122.074C194.495 121.536 194.962 121.112 195.553 120.803C196.133 120.479 196.857 120.388 197.726 120.529C198.423 120.643 199.05 120.941 199.606 121.424C200.164 121.893 200.575 122.521 200.839 123.307C201.092 124.077 201.138 124.95 200.98 125.923Z" fill="white"/>
<path d="M192.166 104.121C192.873 104.108 193.542 104.262 194.175 104.583C194.808 104.904 195.332 105.427 195.746 106.153C196.147 106.878 196.358 107.815 196.38 108.961L196.429 111.481L202.068 111.372L202.112 113.651L188.214 113.92L188.122 109.12C188.101 108.054 188.27 107.151 188.63 106.41C188.975 105.657 189.458 105.094 190.077 104.722C190.697 104.337 191.393 104.136 192.166 104.121ZM194.521 108.997C194.504 108.13 194.298 107.488 193.903 107.068C193.495 106.65 192.931 106.447 192.211 106.461C190.691 106.49 189.948 107.365 189.981 109.085L190.03 111.604L194.569 111.516L194.521 108.997Z" fill="white"/>
<path d="M199.731 90.3031L194.917 94.5436L195.263 96.249L200.712 95.1447L201.165 97.3793L187.542 100.14L186.589 95.4355C186.377 94.3901 186.381 93.471 186.601 92.6781C186.819 91.8722 187.199 91.2306 187.742 90.7533C188.282 90.2629 188.931 89.9409 189.689 89.7874C190.577 89.6073 191.44 89.7045 192.278 90.0789C193.1 90.4429 193.75 91.1342 194.229 92.1528L199.191 87.6373L199.731 90.3031ZM193.479 96.6104L192.979 94.1406C192.809 93.3043 192.473 92.7194 191.97 92.386C191.465 92.0395 190.859 91.9377 190.153 92.0807C189.448 92.2237 188.941 92.544 188.634 93.0416C188.313 93.5419 188.239 94.2167 188.411 95.0661L188.912 97.5359L193.479 96.6104Z" fill="white"/>
<path d="M185.094 83.3911L188.897 81.9149L187.16 77.4401L188.894 76.7671L190.631 81.2419L194.602 79.7006L192.649 74.6664L194.383 73.9934L197.161 81.1531L184.184 86.1896L181.406 79.0299L183.14 78.357L185.094 83.3911Z" fill="white"/>
<path d="M185.572 71.3219C184.424 72.052 183.227 72.4426 181.979 72.4936C180.724 72.5334 179.554 72.2588 178.468 71.6697C177.364 71.0765 176.464 70.2343 175.77 69.1431C174.975 67.8944 174.58 66.5895 174.583 65.2284C174.568 63.8632 174.983 62.6034 175.829 61.4489L177.3 63.7606C176.874 64.458 176.681 65.1733 176.721 65.9066C176.761 66.6398 177.006 67.3607 177.457 68.0694C177.951 68.8457 178.566 69.4265 179.301 69.8121C180.036 70.1977 180.841 70.3573 181.715 70.2909C182.583 70.2132 183.449 69.8988 184.315 69.3477C185.182 68.7965 185.834 68.1447 186.271 67.3921C186.702 66.6282 186.904 65.828 186.877 64.9915C186.84 64.1621 186.574 63.3594 186.08 62.5832C185.629 61.8745 185.08 61.3468 184.433 61C183.785 60.6533 183.056 60.5249 182.244 60.6149L180.773 58.3031C182.177 58.0261 183.494 58.1837 184.724 58.7759C185.947 59.3568 186.956 60.2716 187.75 61.5203C188.452 62.6227 188.839 63.7906 188.913 65.0238C188.975 66.2643 188.723 67.4444 188.155 68.5641C187.58 69.6726 186.719 70.5919 185.572 71.3219Z" fill="white"/>
<path d="M161.282 51.8003L171.111 41.9716L172.723 43.5838L168.424 47.883L173.049 52.5075L177.348 48.2082L178.96 49.8204L169.131 59.6492L167.519 58.037L171.733 53.8227L167.109 49.1982L162.895 53.4126L161.282 51.8003Z" fill="white"/>
</svg>
